# xmcd
# Track frame offsets:
# 150
# 24087
# 46755
# 64887
# 90777
# 112952
# 128247
# 152350
# 176755
# 197330
# 218720
#
# Disc length: 3090 seconds
# Revision: 0
# Processed by: cddbd v1.5.2PL0 Copyright (c) Steve Scherf et al.
# Submitted via: VisiTrax 2.11.2.271 - For more info visit www.synapsa.com
#
DISCID=7b0c100b
DTITLE=& Steve Baker, Chris Jones - Gotta Look Up
DYEAR=2005
DGENRE=
TTITLE0=Damm Good Run
TTITLE1=Elena's Smile
TTITLE2=U Got What U Pay
TTITLE3=One Word
TTITLE4=Coal Tattoo
TTITLE5=Doublecrossed and Blues
TTITLE6=Sweet Simone
TTITLE7=Vigilante Man
TTITLE8=Goin' Down That Road Feeling Bad
TTITLE9=Gott Look Up
TTITLE10=Maria's Lullaby
EXTD=
EXTT0=
EXTT1=
EXTT2=
EXTT3=
EXTT4=
EXTT5=
EXTT6=
EXTT7=
EXTT8=
EXTT9=
EXTT10=
PLAYORDER=
